<mxfile host="app.diagrams.net" modified="2023-09-29T21:37:56.700Z" agent="Mozilla/5.0 (Windows NT 10.0; Win64; x64) AppleWebKit/537.36 (KHTML, like Gecko) Chrome/117.0.0.0 Safari/537.36" etag="qkA5zxnt5PY2rQK06NXz" version="21.8.1" type="device">
  <diagram name="Page-1" id="n24HdKT9l4Ujf7CyrbVR">
    <mxGraphModel dx="1784" dy="499" grid="1" gridSize="10" guides="1" tooltips="1" connect="1" arrows="1" fold="1" page="1" pageScale="1" pageWidth="850" pageHeight="1100" math="0" shadow="0">
      <root>
        <mxCell id="0" />
        <mxCell id="1" parent="0" />
        <mxCell id="PWPaU8b2PSkyWPBf4VYL-1" value="opportunities" style="rounded=0;whiteSpace=wrap;html=1;" vertex="1" parent="1">
          <mxGeometry x="510" y="120" width="90" height="40" as="geometry" />
        </mxCell>
        <mxCell id="PWPaU8b2PSkyWPBf4VYL-3" style="rounded=0;orthogonalLoop=1;jettySize=auto;html=1;entryX=0;entryY=0.5;entryDx=0;entryDy=0;endArrow=none;endFill=0;" edge="1" parent="1" source="PWPaU8b2PSkyWPBf4VYL-2" target="PWPaU8b2PSkyWPBf4VYL-1">
          <mxGeometry relative="1" as="geometry" />
        </mxCell>
        <mxCell id="PWPaU8b2PSkyWPBf4VYL-2" value="&lt;u&gt;name&lt;/u&gt;" style="ellipse;whiteSpace=wrap;html=1;" vertex="1" parent="1">
          <mxGeometry x="390" y="125" width="60" height="30" as="geometry" />
        </mxCell>
        <mxCell id="PWPaU8b2PSkyWPBf4VYL-5" style="rounded=0;orthogonalLoop=1;jettySize=auto;html=1;entryX=0.25;entryY=0;entryDx=0;entryDy=0;endArrow=none;endFill=0;" edge="1" parent="1" source="PWPaU8b2PSkyWPBf4VYL-4" target="PWPaU8b2PSkyWPBf4VYL-1">
          <mxGeometry relative="1" as="geometry" />
        </mxCell>
        <mxCell id="PWPaU8b2PSkyWPBf4VYL-4" value="description" style="ellipse;whiteSpace=wrap;html=1;" vertex="1" parent="1">
          <mxGeometry x="420" y="70" width="80" height="40" as="geometry" />
        </mxCell>
        <mxCell id="PWPaU8b2PSkyWPBf4VYL-7" value="" style="rounded=0;orthogonalLoop=1;jettySize=auto;html=1;endArrow=none;endFill=0;" edge="1" parent="1" source="PWPaU8b2PSkyWPBf4VYL-6" target="PWPaU8b2PSkyWPBf4VYL-1">
          <mxGeometry relative="1" as="geometry" />
        </mxCell>
        <mxCell id="PWPaU8b2PSkyWPBf4VYL-6" value="active_status" style="ellipse;whiteSpace=wrap;html=1;" vertex="1" parent="1">
          <mxGeometry x="500" y="50" width="90" height="30" as="geometry" />
        </mxCell>
        <mxCell id="PWPaU8b2PSkyWPBf4VYL-9" value="rpi_departments" style="rounded=0;whiteSpace=wrap;html=1;" vertex="1" parent="1">
          <mxGeometry x="110" y="270" width="90" height="40" as="geometry" />
        </mxCell>
        <mxCell id="PWPaU8b2PSkyWPBf4VYL-10" style="rounded=0;orthogonalLoop=1;jettySize=auto;html=1;entryX=0;entryY=0.5;entryDx=0;entryDy=0;endArrow=none;endFill=0;" edge="1" parent="1" source="PWPaU8b2PSkyWPBf4VYL-11" target="PWPaU8b2PSkyWPBf4VYL-9">
          <mxGeometry relative="1" as="geometry" />
        </mxCell>
        <mxCell id="PWPaU8b2PSkyWPBf4VYL-11" value="&lt;u&gt;name&lt;/u&gt;" style="ellipse;whiteSpace=wrap;html=1;" vertex="1" parent="1">
          <mxGeometry x="-10" y="275" width="60" height="30" as="geometry" />
        </mxCell>
        <mxCell id="PWPaU8b2PSkyWPBf4VYL-12" style="rounded=0;orthogonalLoop=1;jettySize=auto;html=1;entryX=0.25;entryY=0;entryDx=0;entryDy=0;endArrow=none;endFill=0;" edge="1" parent="1" source="PWPaU8b2PSkyWPBf4VYL-13" target="PWPaU8b2PSkyWPBf4VYL-9">
          <mxGeometry relative="1" as="geometry" />
        </mxCell>
        <mxCell id="PWPaU8b2PSkyWPBf4VYL-13" value="description" style="ellipse;whiteSpace=wrap;html=1;" vertex="1" parent="1">
          <mxGeometry x="20" y="220" width="80" height="40" as="geometry" />
        </mxCell>
        <mxCell id="PWPaU8b2PSkyWPBf4VYL-16" value="lab_runner" style="rounded=0;whiteSpace=wrap;html=1;" vertex="1" parent="1">
          <mxGeometry x="220" y="120" width="90" height="40" as="geometry" />
        </mxCell>
        <mxCell id="PWPaU8b2PSkyWPBf4VYL-17" style="rounded=0;orthogonalLoop=1;jettySize=auto;html=1;entryX=0;entryY=0.5;entryDx=0;entryDy=0;endArrow=none;endFill=0;" edge="1" parent="1" source="PWPaU8b2PSkyWPBf4VYL-18" target="PWPaU8b2PSkyWPBf4VYL-16">
          <mxGeometry relative="1" as="geometry" />
        </mxCell>
        <mxCell id="PWPaU8b2PSkyWPBf4VYL-18" value="&lt;u&gt;rcs_id&lt;/u&gt;" style="ellipse;whiteSpace=wrap;html=1;" vertex="1" parent="1">
          <mxGeometry x="100" y="125" width="60" height="30" as="geometry" />
        </mxCell>
        <mxCell id="PWPaU8b2PSkyWPBf4VYL-19" style="rounded=0;orthogonalLoop=1;jettySize=auto;html=1;entryX=0.25;entryY=0;entryDx=0;entryDy=0;endArrow=none;endFill=0;" edge="1" parent="1" source="PWPaU8b2PSkyWPBf4VYL-20" target="PWPaU8b2PSkyWPBf4VYL-16">
          <mxGeometry relative="1" as="geometry" />
        </mxCell>
        <mxCell id="PWPaU8b2PSkyWPBf4VYL-20" value="name" style="ellipse;whiteSpace=wrap;html=1;" vertex="1" parent="1">
          <mxGeometry x="130" y="70" width="80" height="40" as="geometry" />
        </mxCell>
        <mxCell id="PWPaU8b2PSkyWPBf4VYL-21" value="contact_links" style="rounded=0;whiteSpace=wrap;html=1;" vertex="1" parent="1">
          <mxGeometry x="210" y="420" width="90" height="40" as="geometry" />
        </mxCell>
        <mxCell id="PWPaU8b2PSkyWPBf4VYL-22" style="rounded=0;orthogonalLoop=1;jettySize=auto;html=1;entryX=0;entryY=0.5;entryDx=0;entryDy=0;endArrow=none;endFill=0;" edge="1" parent="1" source="PWPaU8b2PSkyWPBf4VYL-23" target="PWPaU8b2PSkyWPBf4VYL-21">
          <mxGeometry relative="1" as="geometry" />
        </mxCell>
        <mxCell id="PWPaU8b2PSkyWPBf4VYL-23" value="&lt;u&gt;contact_type&lt;/u&gt;" style="ellipse;whiteSpace=wrap;html=1;" vertex="1" parent="1">
          <mxGeometry x="40" y="425" width="110" height="30" as="geometry" />
        </mxCell>
        <mxCell id="PWPaU8b2PSkyWPBf4VYL-24" style="rounded=0;orthogonalLoop=1;jettySize=auto;html=1;entryX=0.25;entryY=0;entryDx=0;entryDy=0;endArrow=none;endFill=0;" edge="1" parent="1" source="PWPaU8b2PSkyWPBf4VYL-25" target="PWPaU8b2PSkyWPBf4VYL-21">
          <mxGeometry relative="1" as="geometry" />
        </mxCell>
        <mxCell id="PWPaU8b2PSkyWPBf4VYL-25" value="&lt;u&gt;contact_link&lt;/u&gt;" style="ellipse;whiteSpace=wrap;html=1;" vertex="1" parent="1">
          <mxGeometry x="120" y="370" width="80" height="40" as="geometry" />
        </mxCell>
        <mxCell id="PWPaU8b2PSkyWPBf4VYL-26" value="courses" style="rounded=0;whiteSpace=wrap;html=1;" vertex="1" parent="1">
          <mxGeometry x="570" y="280" width="90" height="40" as="geometry" />
        </mxCell>
        <mxCell id="PWPaU8b2PSkyWPBf4VYL-27" style="rounded=0;orthogonalLoop=1;jettySize=auto;html=1;entryX=0;entryY=0.5;entryDx=0;entryDy=0;endArrow=none;endFill=0;" edge="1" parent="1" source="PWPaU8b2PSkyWPBf4VYL-28" target="PWPaU8b2PSkyWPBf4VYL-26">
          <mxGeometry relative="1" as="geometry" />
        </mxCell>
        <mxCell id="PWPaU8b2PSkyWPBf4VYL-28" value="course_name" style="ellipse;whiteSpace=wrap;html=1;" vertex="1" parent="1">
          <mxGeometry x="420" y="285" width="90" height="30" as="geometry" />
        </mxCell>
        <mxCell id="PWPaU8b2PSkyWPBf4VYL-29" style="rounded=0;orthogonalLoop=1;jettySize=auto;html=1;entryX=0.25;entryY=0;entryDx=0;entryDy=0;endArrow=none;endFill=0;" edge="1" parent="1" source="PWPaU8b2PSkyWPBf4VYL-30" target="PWPaU8b2PSkyWPBf4VYL-26">
          <mxGeometry relative="1" as="geometry" />
        </mxCell>
        <mxCell id="PWPaU8b2PSkyWPBf4VYL-30" value="&lt;u&gt;course_code&lt;/u&gt;" style="ellipse;whiteSpace=wrap;html=1;" vertex="1" parent="1">
          <mxGeometry x="480" y="230" width="80" height="40" as="geometry" />
        </mxCell>
        <mxCell id="PWPaU8b2PSkyWPBf4VYL-31" value="majors" style="rounded=0;whiteSpace=wrap;html=1;" vertex="1" parent="1">
          <mxGeometry x="517.5" y="360" width="85" height="30" as="geometry" />
        </mxCell>
        <mxCell id="PWPaU8b2PSkyWPBf4VYL-34" style="rounded=0;orthogonalLoop=1;jettySize=auto;html=1;entryX=0;entryY=0.5;entryDx=0;entryDy=0;endArrow=none;endFill=0;" edge="1" parent="1" source="PWPaU8b2PSkyWPBf4VYL-33" target="PWPaU8b2PSkyWPBf4VYL-31">
          <mxGeometry relative="1" as="geometry" />
        </mxCell>
        <mxCell id="PWPaU8b2PSkyWPBf4VYL-33" value="&lt;u&gt;major&lt;/u&gt;" style="ellipse;whiteSpace=wrap;html=1;" vertex="1" parent="1">
          <mxGeometry x="377.5" y="360" width="90" height="30" as="geometry" />
        </mxCell>
        <mxCell id="PWPaU8b2PSkyWPBf4VYL-35" value="class_years" style="rounded=0;whiteSpace=wrap;html=1;" vertex="1" parent="1">
          <mxGeometry x="510" y="440" width="85" height="30" as="geometry" />
        </mxCell>
        <mxCell id="PWPaU8b2PSkyWPBf4VYL-36" style="rounded=0;orthogonalLoop=1;jettySize=auto;html=1;entryX=0;entryY=0.5;entryDx=0;entryDy=0;endArrow=none;endFill=0;" edge="1" parent="1" source="PWPaU8b2PSkyWPBf4VYL-37" target="PWPaU8b2PSkyWPBf4VYL-35">
          <mxGeometry relative="1" as="geometry" />
        </mxCell>
        <mxCell id="PWPaU8b2PSkyWPBf4VYL-37" value="&lt;u&gt;class_years&lt;/u&gt;" style="ellipse;whiteSpace=wrap;html=1;" vertex="1" parent="1">
          <mxGeometry x="370" y="440" width="90" height="30" as="geometry" />
        </mxCell>
        <mxCell id="PWPaU8b2PSkyWPBf4VYL-38" value="experiences" style="rounded=0;whiteSpace=wrap;html=1;" vertex="1" parent="1">
          <mxGeometry x="517.5" y="510" width="85" height="30" as="geometry" />
        </mxCell>
        <mxCell id="PWPaU8b2PSkyWPBf4VYL-39" style="rounded=0;orthogonalLoop=1;jettySize=auto;html=1;entryX=0;entryY=0.5;entryDx=0;entryDy=0;endArrow=none;endFill=0;" edge="1" parent="1" source="PWPaU8b2PSkyWPBf4VYL-40" target="PWPaU8b2PSkyWPBf4VYL-38">
          <mxGeometry relative="1" as="geometry" />
        </mxCell>
        <mxCell id="PWPaU8b2PSkyWPBf4VYL-40" value="&lt;u&gt;description&lt;/u&gt;" style="ellipse;whiteSpace=wrap;html=1;" vertex="1" parent="1">
          <mxGeometry x="377.5" y="510" width="90" height="30" as="geometry" />
        </mxCell>
        <mxCell id="PWPaU8b2PSkyWPBf4VYL-41" value="pay_compensation_info" style="rounded=0;whiteSpace=wrap;html=1;" vertex="1" parent="1">
          <mxGeometry x="850" y="395" width="140" height="30" as="geometry" />
        </mxCell>
        <mxCell id="PWPaU8b2PSkyWPBf4VYL-42" style="rounded=0;orthogonalLoop=1;jettySize=auto;html=1;entryX=0;entryY=0.5;entryDx=0;entryDy=0;endArrow=none;endFill=0;" edge="1" parent="1" source="PWPaU8b2PSkyWPBf4VYL-43" target="PWPaU8b2PSkyWPBf4VYL-41">
          <mxGeometry relative="1" as="geometry" />
        </mxCell>
        <mxCell id="PWPaU8b2PSkyWPBf4VYL-43" value="&lt;u&gt;pay_usd_per_hour&lt;/u&gt;" style="ellipse;whiteSpace=wrap;html=1;" vertex="1" parent="1">
          <mxGeometry x="700" y="395" width="130" height="30" as="geometry" />
        </mxCell>
        <mxCell id="PWPaU8b2PSkyWPBf4VYL-44" value="credit_compensation_info" style="rounded=0;whiteSpace=wrap;html=1;" vertex="1" parent="1">
          <mxGeometry x="870" y="257.5" width="140" height="30" as="geometry" />
        </mxCell>
        <mxCell id="PWPaU8b2PSkyWPBf4VYL-48" value="" style="rounded=0;orthogonalLoop=1;jettySize=auto;html=1;endArrow=none;endFill=0;" edge="1" parent="1" source="PWPaU8b2PSkyWPBf4VYL-45" target="PWPaU8b2PSkyWPBf4VYL-44">
          <mxGeometry relative="1" as="geometry" />
        </mxCell>
        <mxCell id="PWPaU8b2PSkyWPBf4VYL-45" value="&lt;u&gt;number_of_credits&lt;/u&gt;" style="ellipse;whiteSpace=wrap;html=1;" vertex="1" parent="1">
          <mxGeometry x="720" y="257.5" width="130" height="30" as="geometry" />
        </mxCell>
        <mxCell id="PWPaU8b2PSkyWPBf4VYL-47" style="rounded=0;orthogonalLoop=1;jettySize=auto;html=1;entryX=0.25;entryY=1;entryDx=0;entryDy=0;endArrow=none;endFill=0;exitX=0.973;exitY=0.238;exitDx=0;exitDy=0;exitPerimeter=0;" edge="1" parent="1" source="PWPaU8b2PSkyWPBf4VYL-46" target="PWPaU8b2PSkyWPBf4VYL-44">
          <mxGeometry relative="1" as="geometry" />
        </mxCell>
        <mxCell id="PWPaU8b2PSkyWPBf4VYL-46" value="&lt;u&gt;course_code&lt;/u&gt;" style="ellipse;whiteSpace=wrap;html=1;" vertex="1" parent="1">
          <mxGeometry x="740" y="312.5" width="130" height="30" as="geometry" />
        </mxCell>
        <mxCell id="PWPaU8b2PSkyWPBf4VYL-51" value="application_due_date" style="rounded=0;whiteSpace=wrap;html=1;" vertex="1" parent="1">
          <mxGeometry x="790" y="500" width="140" height="30" as="geometry" />
        </mxCell>
        <mxCell id="PWPaU8b2PSkyWPBf4VYL-52" style="rounded=0;orthogonalLoop=1;jettySize=auto;html=1;entryX=0;entryY=0.5;entryDx=0;entryDy=0;endArrow=none;endFill=0;" edge="1" parent="1" source="PWPaU8b2PSkyWPBf4VYL-53" target="PWPaU8b2PSkyWPBf4VYL-51">
          <mxGeometry relative="1" as="geometry" />
        </mxCell>
        <mxCell id="PWPaU8b2PSkyWPBf4VYL-53" value="&lt;u&gt;date&lt;/u&gt;" style="ellipse;whiteSpace=wrap;html=1;" vertex="1" parent="1">
          <mxGeometry x="710" y="500" width="60" height="30" as="geometry" />
        </mxCell>
        <mxCell id="PWPaU8b2PSkyWPBf4VYL-54" value="semester" style="rounded=0;whiteSpace=wrap;html=1;" vertex="1" parent="1">
          <mxGeometry x="830" y="120" width="140" height="30" as="geometry" />
        </mxCell>
        <mxCell id="PWPaU8b2PSkyWPBf4VYL-55" value="" style="rounded=0;orthogonalLoop=1;jettySize=auto;html=1;endArrow=none;endFill=0;" edge="1" parent="1" source="PWPaU8b2PSkyWPBf4VYL-56" target="PWPaU8b2PSkyWPBf4VYL-54">
          <mxGeometry relative="1" as="geometry" />
        </mxCell>
        <mxCell id="PWPaU8b2PSkyWPBf4VYL-56" value="&lt;u&gt;season&lt;/u&gt;" style="ellipse;whiteSpace=wrap;html=1;" vertex="1" parent="1">
          <mxGeometry x="750" y="120" width="60" height="30" as="geometry" />
        </mxCell>
        <mxCell id="PWPaU8b2PSkyWPBf4VYL-57" style="rounded=0;orthogonalLoop=1;jettySize=auto;html=1;entryX=0.25;entryY=1;entryDx=0;entryDy=0;endArrow=none;endFill=0;exitX=0.973;exitY=0.238;exitDx=0;exitDy=0;exitPerimeter=0;" edge="1" parent="1" source="PWPaU8b2PSkyWPBf4VYL-58" target="PWPaU8b2PSkyWPBf4VYL-54">
          <mxGeometry relative="1" as="geometry" />
        </mxCell>
        <mxCell id="PWPaU8b2PSkyWPBf4VYL-58" value="&lt;u&gt;year&lt;/u&gt;" style="ellipse;whiteSpace=wrap;html=1;" vertex="1" parent="1">
          <mxGeometry x="780" y="175" width="50" height="30" as="geometry" />
        </mxCell>
      </root>
    </mxGraphModel>
  </diagram>
</mxfile>
